<?xml version="1.0" encoding="utf-8"?>
<!-- Generator: Adobe Illustrator 18.0.0, SVG Export Plug-In . SVG Version: 6.00 Build 0)  -->
<!DOCTYPE svg PUBLIC "-//W3C//DTD SVG 1.1//EN" "http://www.w3.org/Graphics/SVG/1.1/DTD/svg11.dtd">
<svg version="1.1" id="Camada_1" xmlns="http://www.w3.org/2000/svg" xmlns:xlink="http://www.w3.org/1999/xlink" x="0px" y="0px"
	 viewBox="0 0 125.3 41.7" enable-background="new 0 0 125.3 41.7" xml:space="preserve">
<g>
	<g>
		<path fill="#1861A1" d="M21,0.9v1.6h-6.9v5H20v1.6h-5.9v6.2h-1.9V0.9H21z"/>
		<path fill="#1861A1" d="M24.8,15.2h-1.9V0.9h1.9V15.2z"/>
		<path fill="#1861A1" d="M41,8.1c0,0.7-0.1,1.3-0.2,1.9c-0.1,0.6-0.3,1.2-0.6,1.7s-0.6,1-1,1.4c-0.4,0.4-0.8,0.8-1.3,1.1l3.7,4
			h-1.6c-0.2,0-0.5,0-0.6-0.1c-0.2-0.1-0.4-0.2-0.5-0.4L36.4,15c-0.4,0.1-0.8,0.2-1.2,0.3c-0.4,0.1-0.8,0.1-1.3,0.1
			c-1.1,0-2-0.2-2.9-0.5c-0.9-0.4-1.6-0.9-2.2-1.5c-0.6-0.6-1.1-1.4-1.4-2.3c-0.3-0.9-0.5-1.9-0.5-3c0-1.1,0.2-2.1,0.5-3
			c0.3-0.9,0.8-1.7,1.4-2.3s1.4-1.2,2.2-1.5c0.9-0.4,1.8-0.5,2.9-0.5c1.1,0,2,0.2,2.9,0.5c0.9,0.4,1.6,0.9,2.2,1.5
			c0.6,0.6,1.1,1.4,1.4,2.3C40.8,6,41,7,41,8.1z M39,8.1c0-0.9-0.1-1.7-0.4-2.4c-0.2-0.7-0.6-1.3-1-1.8c-0.4-0.5-1-0.9-1.6-1.1
			c-0.6-0.3-1.3-0.4-2.1-0.4c-0.8,0-1.5,0.1-2.1,0.4c-0.6,0.3-1.2,0.6-1.6,1.1c-0.4,0.5-0.8,1.1-1,1.8c-0.2,0.7-0.4,1.5-0.4,2.4
			c0,0.9,0.1,1.7,0.4,2.4s0.6,1.3,1,1.8s1,0.9,1.6,1.1c0.6,0.3,1.3,0.4,2.1,0.4c0.8,0,1.5-0.1,2.1-0.4c0.6-0.3,1.2-0.6,1.6-1.1
			c0.4-0.5,0.8-1.1,1-1.8S39,8.9,39,8.1z"/>
		<path fill="#1861A1" d="M48.2,13.7c0.6,0,1.1-0.1,1.6-0.3c0.5-0.2,0.9-0.5,1.2-0.8c0.3-0.4,0.6-0.8,0.7-1.3s0.3-1,0.3-1.6V0.9h1.9
			v8.7c0,0.8-0.1,1.6-0.4,2.3c-0.3,0.7-0.6,1.3-1.1,1.8c-0.5,0.5-1.1,0.9-1.8,1.2c-0.7,0.3-1.5,0.4-2.4,0.4c-0.9,0-1.7-0.1-2.4-0.4
			c-0.7-0.3-1.3-0.7-1.8-1.2s-0.9-1.1-1.1-1.8c-0.3-0.7-0.4-1.5-0.4-2.3V0.9h1.9v8.7c0,0.6,0.1,1.1,0.3,1.6s0.4,0.9,0.7,1.3
			c0.3,0.4,0.7,0.6,1.2,0.8C47.1,13.6,47.6,13.7,48.2,13.7z"/>
		<path fill="#1861A1" d="M65.1,0.9v1.6h-6.9v4.8h5.6v1.5h-5.6v4.9h6.9v1.6h-8.8V0.9H65.1z"/>
		<path fill="#1861A1" d="M71.8,9.9v5.4h-1.9V0.9h4.2c0.9,0,1.7,0.1,2.4,0.3s1.2,0.5,1.7,0.9c0.4,0.4,0.8,0.9,1,1.4
			c0.2,0.5,0.3,1.2,0.3,1.8c0,0.7-0.1,1.3-0.3,1.8c-0.2,0.6-0.6,1-1,1.4s-1,0.7-1.7,0.9c-0.7,0.2-1.4,0.3-2.3,0.3H71.8z M71.8,8.3
			h2.3c0.6,0,1-0.1,1.5-0.2C76,8,76.4,7.8,76.7,7.5c0.3-0.3,0.5-0.6,0.6-0.9c0.1-0.4,0.2-0.8,0.2-1.2c0-0.9-0.3-1.6-0.8-2.1
			c-0.6-0.5-1.4-0.8-2.6-0.8h-2.3V8.3z"/>
		<path fill="#1861A1" d="M94.2,8.1c0,1.1-0.2,2.1-0.5,3c-0.3,0.9-0.8,1.7-1.4,2.3c-0.6,0.6-1.4,1.1-2.2,1.5
			c-0.9,0.4-1.8,0.5-2.9,0.5c-1.1,0-2-0.2-2.9-0.5c-0.9-0.4-1.6-0.9-2.2-1.5c-0.6-0.6-1.1-1.4-1.4-2.3c-0.3-0.9-0.5-1.9-0.5-3
			c0-1.1,0.2-2.1,0.5-3c0.3-0.9,0.8-1.7,1.4-2.3s1.4-1.2,2.2-1.5c0.9-0.4,1.8-0.5,2.9-0.5c1.1,0,2,0.2,2.9,0.5
			c0.9,0.4,1.6,0.9,2.2,1.5c0.6,0.6,1.1,1.4,1.4,2.3C94.1,6,94.2,7,94.2,8.1z M92.3,8.1c0-0.9-0.1-1.7-0.4-2.4
			c-0.2-0.7-0.6-1.3-1-1.8c-0.4-0.5-1-0.9-1.6-1.1c-0.6-0.3-1.3-0.4-2.1-0.4c-0.8,0-1.5,0.1-2.1,0.4c-0.6,0.3-1.2,0.6-1.6,1.1
			c-0.4,0.5-0.8,1.1-1,1.8c-0.2,0.7-0.4,1.5-0.4,2.4c0,0.9,0.1,1.7,0.4,2.4s0.6,1.3,1,1.8s1,0.9,1.6,1.1c0.6,0.3,1.3,0.4,2.1,0.4
			c0.8,0,1.5-0.1,2.1-0.4c0.6-0.3,1.2-0.6,1.6-1.1c0.4-0.5,0.8-1.1,1-1.8S92.3,8.9,92.3,8.1z"/>
		<path fill="#1861A1" d="M98,9.2v6h-1.9V0.9h4c0.9,0,1.7,0.1,2.3,0.3c0.7,0.2,1.2,0.4,1.6,0.8c0.4,0.3,0.7,0.8,1,1.3
			c0.2,0.5,0.3,1,0.3,1.6c0,0.5-0.1,1-0.2,1.4s-0.4,0.8-0.7,1.2c-0.3,0.4-0.7,0.6-1.1,0.9c-0.4,0.2-0.9,0.4-1.5,0.6
			c0.2,0.1,0.5,0.3,0.6,0.6l4.2,5.7H105c-0.4,0-0.6-0.1-0.8-0.4l-3.7-5.1c-0.1-0.2-0.2-0.3-0.4-0.3c-0.1-0.1-0.3-0.1-0.6-0.1H98z
			 M98,7.8h2c0.6,0,1.1-0.1,1.5-0.2c0.4-0.1,0.8-0.3,1.1-0.6s0.5-0.5,0.7-0.9s0.2-0.7,0.2-1.2c0-0.9-0.3-1.5-0.8-1.9
			c-0.6-0.4-1.4-0.6-2.5-0.6H98V7.8z"/>
	</g>
</g>
<g>
	<g>
		<path fill="#1861A1" d="M31.9,30.2c0,1.6-0.3,3.1-0.8,4.4S29.9,37,28.9,38c-1,1-2.1,1.7-3.5,2.2S22.6,41,20.9,41h-8.3V19.3h8.3
			c1.6,0,3.1,0.3,4.5,0.8s2.5,1.3,3.5,2.2c1,1,1.7,2.1,2.2,3.4C31.7,27.1,31.9,28.6,31.9,30.2z M27.8,30.2c0-1.2-0.2-2.3-0.5-3.2
			s-0.8-1.7-1.4-2.4c-0.6-0.7-1.3-1.2-2.2-1.5c-0.8-0.3-1.8-0.5-2.9-0.5h-4.2v15.3h4.2c1.1,0,2-0.2,2.9-0.5c0.8-0.3,1.6-0.9,2.2-1.5
			c0.6-0.7,1-1.5,1.4-2.4S27.8,31.4,27.8,30.2z"/>
		<path fill="#1861A1" d="M47.3,19.3v3.2h-9.6v6h7.6v3.1h-7.6v6.1h9.6V41H33.6V19.3H47.3z"/>
		<path fill="#1861A1" d="M51.8,19.4c0.1,0,0.2,0,0.3,0.1c0.1,0,0.2,0.1,0.3,0.2c0.1,0.1,0.2,0.2,0.3,0.3l11.4,14.5
			c0-0.4-0.1-0.7-0.1-1c0-0.3,0-0.6,0-0.9V19.3h3.6V41h-2.1c-0.3,0-0.6,0-0.8-0.2c-0.2-0.1-0.4-0.3-0.6-0.5L52.7,25.9
			c0,0.3,0.1,0.6,0.1,1c0,0.3,0,0.6,0,0.9V41h-3.6V19.3h2.1C51.6,19.3,51.7,19.3,51.8,19.4z"/>
		<path fill="#1861A1" d="M85.7,19.3v3.3h-6.5V41h-4V22.7h-6.6v-3.3H85.7z"/>
		<path fill="#1861A1" d="M91,32.6V41h-4V19.3h6.6c1.5,0,2.7,0.2,3.8,0.5c1.1,0.3,1.9,0.7,2.6,1.3c0.7,0.5,1.2,1.2,1.5,2
			c0.3,0.8,0.5,1.6,0.5,2.5c0,0.7-0.1,1.4-0.3,2.1c-0.2,0.6-0.5,1.2-0.9,1.8c-0.4,0.5-0.9,1-1.5,1.4c-0.6,0.4-1.3,0.7-2,1
			c0.5,0.3,1,0.7,1.3,1.2l5.4,8h-3.6c-0.3,0-0.6-0.1-0.9-0.2c-0.2-0.1-0.5-0.3-0.6-0.6l-4.6-6.9c-0.2-0.3-0.4-0.4-0.6-0.6
			c-0.2-0.1-0.5-0.2-0.9-0.2H91z M91,29.7h2.5c0.8,0,1.4-0.1,2-0.3c0.6-0.2,1-0.5,1.4-0.8c0.4-0.3,0.6-0.7,0.8-1.2s0.3-1,0.3-1.5
			c0-1.1-0.4-1.9-1.1-2.5c-0.7-0.6-1.8-0.9-3.3-0.9H91V29.7z"/>
		<path fill="#1861A1" d="M125,30.2c0,1.6-0.3,3.1-0.8,4.4c-0.5,1.4-1.3,2.5-2.2,3.5s-2.1,1.8-3.5,2.3s-2.8,0.8-4.5,0.8
			c-1.6,0-3.1-0.3-4.5-0.8c-1.4-0.6-2.5-1.3-3.5-2.3c-1-1-1.7-2.2-2.2-3.5c-0.5-1.4-0.8-2.8-0.8-4.4c0-1.6,0.3-3.1,0.8-4.4
			c0.5-1.4,1.3-2.5,2.2-3.5c1-1,2.1-1.8,3.5-2.3c1.4-0.6,2.9-0.8,4.5-0.8c1.6,0,3.1,0.3,4.5,0.8c1.3,0.6,2.5,1.3,3.5,2.3
			c1,1,1.7,2.2,2.2,3.5C124.8,27.1,125,28.6,125,30.2z M120.9,30.2c0-1.2-0.2-2.3-0.5-3.2c-0.3-0.9-0.8-1.7-1.4-2.4
			c-0.6-0.7-1.3-1.2-2.2-1.5c-0.8-0.3-1.8-0.5-2.9-0.5c-1.1,0-2,0.2-2.9,0.5c-0.9,0.4-1.6,0.9-2.2,1.5S108,26,107.6,27
			c-0.3,0.9-0.5,2-0.5,3.2c0,1.2,0.2,2.3,0.5,3.2c0.3,0.9,0.8,1.7,1.4,2.4c0.6,0.7,1.3,1.2,2.2,1.5c0.8,0.4,1.8,0.5,2.9,0.5
			c1.1,0,2-0.2,2.9-0.5c0.8-0.3,1.6-0.9,2.2-1.5c0.6-0.7,1-1.5,1.4-2.4C120.7,32.4,120.9,31.4,120.9,30.2z"/>
	</g>
</g>
<line fill="none" stroke="#7B838E" stroke-miterlimit="10" x1="6.7" y1="36.3" x2="0.7" y2="36.3"/>
<line fill="none" stroke="#7B838E" stroke-miterlimit="10" x1="1.2" y1="36.3" x2="1.2" y2="5"/>
<line fill="none" stroke="#7B838E" stroke-miterlimit="10" x1="0.7" y1="5" x2="5.8" y2="5"/>
</svg>
